<svg xmlns="http://www.w3.org/2000/svg" width="128" height="128"><rect x="1.75" y="1.749" width="124.5" height="92.708" rx="8" fill="#4d5e80"/><path fill="#f3f5f9" d="M9.75 9.748h108.5v76.708H9.75z"/><path fill="#e1e6f0" d="M41.594 94.457h44.813v17.482H41.594z"/><path d="M33.344 111.939h61.312a6 6 0 0 1 6 6v8.313H27.344v-8.313a6 6 0 0 1 6-6zM56.292 66.847 38.05 56.839V36.595l18.242 10.008v20.244z" fill="#4d5e80"/><path fill="#3d4566" d="m56.292 66.847 28.25-10.008V36.595l-28.25 10.008v20.244z"/><path fill="#ffdf40" d="m38.05 36.595 10.617-9.436 7.625 19.444L38.05 36.595z"/><path fill="#ffbe40" d="m48.667 27.159 26.625-7 9.25 16.436-28.25 10.008-7.625-19.444z"/><g fill="#e1e6f0"><path d="M97.923 54.1V38.8a1.744 1.744 0 0 0 2.518-2.407L97.5 32.951a1.774 1.774 0 0 0-2.661 0l-2.938 3.438a1.744 1.744 0 0 0 2.522 2.411v15.3a1.745 1.745 0 0 0-2.518 2.41l2.938 3.438a1.775 1.775 0 0 0 2.661 0l2.937-3.438a1.745 1.745 0 0 0-2.518-2.41zM88.523 65.385a1.8 1.8 0 0 0-1.089-1.191l-4.249-1.548a1.746 1.746 0 0 0-1.376 3.2l-14.333 5.36a1.746 1.746 0 0 0-3.14-1.514l-2.191 3.958a1.775 1.775 0 0 0 .932 2.493l4.249 1.547a1.746 1.746 0 0 0 1.376-3.2l14.333-5.36a1.746 1.746 0 0 0 3.14 1.515l2.191-3.956a1.825 1.825 0 0 0 .157-1.304zM52.45 73.944c-.015-.1-.06-.2-.085-.3l-1.662-4.2a1.745 1.745 0 0 0-3.309 1.1l-13.522-7.175a1.745 1.745 0 0 0-.952-3.353L28.507 61a1.774 1.774 0 0 0-1.245 2.351l1.662 4.205a1.751 1.751 0 0 0 1.628 1.108 1.746 1.746 0 0 0 1.681-2.2l13.522 7.165a1.745 1.745 0 0 0 .951 3.353l4.413-.986a1.771 1.771 0 0 0 1.331-2.052z"/></g><g><path d="M118.25 0H9.75A9.762 9.762 0 0 0 0 9.748v76.709a9.761 9.761 0 0 0 9.75 9.75h30.094v13.982h-6.5a7.759 7.759 0 0 0-7.75 7.75v8.313a1.75 1.75 0 0 0 1.75 1.75h73.312a1.75 1.75 0 0 0 1.75-1.75v-8.313a7.759 7.759 0 0 0-7.75-7.75h-6.5V96.207h30.094a9.761 9.761 0 0 0 9.75-9.75V9.748A9.762 9.762 0 0 0 118.25 0zM98.906 117.939v6.561H29.094v-6.563a4.255 4.255 0 0 1 4.25-4.25h61.312a4.255 4.255 0 0 1 4.25 4.252zm-14.25-7.75H43.344V96.207h41.312zM124.5 86.457a6.257 6.257 0 0 1-6.25 6.25H9.75a6.257 6.257 0 0 1-6.25-6.25V9.748A6.257 6.257 0 0 1 9.75 3.5h108.5a6.257 6.257 0 0 1 6.25 6.25z"/><path d="M35.563 84.707h-5.416a1.75 1.75 0 1 0 0 3.5h5.416a1.75 1.75 0 0 0 0-3.5z"/><path d="M118.25 8H9.75A1.751 1.751 0 0 0 8 9.748v76.709a1.751 1.751 0 0 0 1.75 1.75h7.438a1.75 1.75 0 1 0 0-3.5H11.5V11.5h105v73.207H48.522a1.75 1.75 0 1 0 0 3.5h69.728a1.751 1.751 0 0 0 1.75-1.75V9.748A1.751 1.751 0 0 0 118.25 8z"/><path d="m51.014 28.351 24.723-6.5a1.75 1.75 0 0 0-.89-3.385l-26.6 6.994h-.024a1.772 1.772 0 0 0-.357.138c-.031.016-.058.04-.088.058a1.678 1.678 0 0 0-.24.166.378.378 0 0 0-.033.022l-10.618 9.443c-.016.014-.027.033-.042.048a1.7 1.7 0 0 0-.126.143 1.632 1.632 0 0 0-.147.2 1.462 1.462 0 0 0-.088.166 1.831 1.831 0 0 0-.092.225 1.6 1.6 0 0 0-.047.184 1.789 1.789 0 0 0-.032.244c0 .035-.013.068-.013.1v20.242a1.75 1.75 0 0 0 .908 1.534L55.45 68.381a1.846 1.846 0 0 0 .213.084 1.522 1.522 0 0 0 .146.057 1.732 1.732 0 0 0 .483.075 1.751 1.751 0 0 0 .53-.091c.018-.006.037 0 .055-.01l28.25-10.008a1.749 1.749 0 0 0 1.165-1.649V36.6c0-.021-.007-.041-.008-.062a1.58 1.58 0 0 0-.028-.237c-.009-.054-.016-.107-.03-.159a1.848 1.848 0 0 0-.084-.225 1.567 1.567 0 0 0-.063-.146c0-.009-.007-.02-.012-.029l-4.152-7.378a1.75 1.75 0 0 0-3.05 1.717L82 35.641l-12.657 4.482L57.3 44.388zm-3.06 1.784 2.751 7.014 2.194 5.6-5.558-3.049-6.274-3.442zM39.8 39.551l.418.229 14.324 7.859v16.252L39.8 55.8zM82.792 55.6l-24.75 8.77V47.84l24.75-8.768zM92.1 54.045a1.749 1.749 0 0 0-.194 2.467l2.938 3.438a1.775 1.775 0 0 0 2.661 0l2.937-3.438a1.745 1.745 0 0 0-2.518-2.41V38.8a1.744 1.744 0 0 0 2.518-2.407L97.5 32.951a1.774 1.774 0 0 0-2.661 0l-2.938 3.438a1.744 1.744 0 0 0 2.522 2.411v15.3a1.744 1.744 0 0 0-2.323-.055zM88.554 65.556a1.762 1.762 0 0 0-1.12-1.362l-4.249-1.548a1.746 1.746 0 0 0-1.376 3.2l-14.333 5.36a1.746 1.746 0 0 0-3.14-1.514l-2.191 3.958a1.775 1.775 0 0 0 .932 2.493l4.249 1.547a1.746 1.746 0 0 0 1.376-3.2l14.333-5.36a1.746 1.746 0 0 0 3.14 1.515l2.191-3.956a1.768 1.768 0 0 0 .188-1.133zM51.23 75.957a1.761 1.761 0 0 0 1.135-2.314l-1.662-4.2a1.745 1.745 0 0 0-3.309 1.1l-13.522-7.174a1.745 1.745 0 0 0-.952-3.353L28.507 61a1.774 1.774 0 0 0-1.245 2.351l1.662 4.205a1.751 1.751 0 0 0 1.628 1.108 1.746 1.746 0 0 0 1.681-2.2l13.522 7.165a1.745 1.745 0 0 0 .951 3.353l4.413-.986c.039-.011.073-.028.111-.039z"/></g></svg>